<svg xmlns="http://www.w3.org/2000/svg" viewBox="0 0 1024 1024">
  <defs>
    <linearGradient id="bg" x1="0%" y1="0%" x2="100%" y2="100%">
      <stop offset="0%" stop-color="#1d3557"/>
      <stop offset="55%" stop-color="#264d73"/>
      <stop offset="100%" stop-color="#0d1b2a"/>
    </linearGradient>
    <linearGradient id="gold" x1="0%" y1="0%" x2="100%" y2="100%">
      <stop offset="0%" stop-color="#f7d27a"/>
      <stop offset="100%" stop-color="#d99a2b"/>
    </linearGradient>
    <linearGradient id="ruby" x1="0%" y1="0%" x2="100%" y2="0%">
      <stop offset="0%" stop-color="#8dd3ff"/>
      <stop offset="100%" stop-color="#d5f0ff"/>
    </linearGradient>
    <filter id="shadow" x="-20%" y="-20%" width="140%" height="140%">
      <feDropShadow dx="0" dy="16" stdDeviation="18" flood-color="#08111d" flood-opacity="0.35"/>
    </filter>
  </defs>

  <rect x="72" y="72" width="880" height="880" rx="220" fill="url(#bg)"/>
  <circle cx="792" cy="252" r="86" fill="#13283f" opacity="0.7"/>

  <g filter="url(#shadow)">
    <path d="M522 222c-154 0-282 104-319 250-46 184 67 360 251 405 101 25 210 2 294-60 19-14 24-41 9-60-14-20-41-24-60-10-64 47-147 65-224 46-137-34-220-169-186-305 28-111 125-189 235-189 79 0 150 38 194 102 13 20 40 24 60 11 20-14 25-41 11-61-60-88-159-139-265-139Z" fill="url(#gold)"/>
    <path d="M544 478h214c24 0 44 20 44 44v162c0 24-20 44-44 44H548c-24 0-44-20-44-44s20-44 44-44h166v-74H544c-24 0-44-20-44-44s20-44 44-44Z" fill="url(#gold)"/>
  </g>

  <g transform="translate(605 260)">
    <rect x="0" y="0" width="220" height="164" rx="44" fill="#10253a" opacity="0.95"/>
    <path d="M148 164l-6 56-44-46H40C18 174 0 156 0 134V44C0 20 20 0 44 0h132c24 0 44 20 44 44v90c0 22-18 40-40 40h-72Z" fill="#14304b"/>
    <text x="44" y="108" font-family="Outfit, Avenir Next, sans-serif" font-size="88" font-weight="700" fill="url(#ruby)">語</text>
    <rect x="38" y="-34" width="34" height="14" rx="7" fill="url(#ruby)"/>
    <rect x="86" y="-34" width="34" height="14" rx="7" fill="url(#ruby)"/>
    <rect x="134" y="-34" width="34" height="14" rx="7" fill="url(#ruby)"/>
  </g>
</svg>
